<svg id="Layer_1" data-name="Layer 1" xmlns="http://www.w3.org/2000/svg" viewBox="0 0 162 151.2"><defs><style>.cls-1{fill:#231f20;}.cls-2{fill:#939598;}</style></defs><title>Artboard 1</title><path class="cls-1" d="M100.26,29.58l.34.4Z"/><path class="cls-1" d="M100.26,29.58l.34.4Z"/><rect class="cls-2" x="59.81" y="113.13" width="42.39" height="0.56"/><path class="cls-2" d="M26.85,106.31a2.29,2.29,0,0,1-1.86-.83,3,3,0,0,1-.72-2,2.65,2.65,0,0,1,2.59-2.84,2.85,2.85,0,0,1,0,5.68Zm0-4.75c-.93,0-1.55.75-1.55,1.88s.67,1.95,1.57,1.95a1.62,1.62,0,0,0,1.56-1.79C28.46,102.53,27.92,101.56,26.86,101.56Z"/><path class="cls-2" d="M31.63,103h2.26v.87H31.63v2.29h-1v-5.4H34.2v.9H31.63Z"/><path class="cls-2" d="M36.41,103h2.26v.87H36.41v2.29h-1v-5.4H39v.9H36.41Z"/><path class="cls-2" d="M41.2,100.77v5.4h-1v-5.4Z"/><path class="cls-2" d="M47.33,104.66a2.89,2.89,0,0,1-.47.81,2.39,2.39,0,0,1-1.87.83,2.85,2.85,0,0,1,0-5.68,2.16,2.16,0,0,1,2.2,1.67l-1,.27A1.35,1.35,0,0,0,46,102a1.14,1.14,0,0,0-1-.47c-.88,0-1.49.73-1.49,1.88s.65,1.91,1.5,1.91a1.24,1.24,0,0,0,1-.53,1.74,1.74,0,0,0,.28-.56Z"/><path class="cls-2" d="M49.49,101.67v1.27h2.6v.87h-2.6v1.45h3v.91h-4v-5.4h3.84v.9Z"/><path class="cls-2" d="M58.89,106.31a2.29,2.29,0,0,1-1.86-.83,3,3,0,0,1-.72-2,2.65,2.65,0,0,1,2.6-2.84,2.85,2.85,0,0,1,0,5.68Zm0-4.75c-.92,0-1.54.75-1.54,1.88s.67,1.95,1.57,1.95a1.62,1.62,0,0,0,1.56-1.79C60.5,102.53,60,101.56,58.9,101.56Z"/><path class="cls-2" d="M63.69,103h2.25v.87H63.69v2.29h-1v-5.4h3.57v.9H63.69Z"/><path class="cls-2" d="M72.74,105.11h-2l-.31,1.06H69.31l1.82-5.4h1.15l1.85,5.4H73Zm-.27-.88-.74-2.49L71,104.23Z"/><path class="cls-2" d="M75.36,100.77h1.72a2.4,2.4,0,0,1,1.68.39,1.65,1.65,0,0,1,.6,1.33A1.48,1.48,0,0,1,78.3,104l1.2,2.2H78.34l-1.07-2h-.9v2h-1Zm1,.87v1.69h.35l.66,0a.84.84,0,0,0,1-.83.77.77,0,0,0-.43-.73,2.51,2.51,0,0,0-1.07-.12Z"/><path class="cls-2" d="M84.3,101.68h-1.5v4.49h-1v-4.49H80.33v-.92h4Z"/><path class="cls-2" d="M85.79,104.56a1.8,1.8,0,0,0,1.67.82,1.57,1.57,0,0,0,.58-.09.64.64,0,0,0,.46-.62.55.55,0,0,0-.4-.54,4,4,0,0,0-.63-.17l-.65-.13a5.61,5.61,0,0,1-.68-.19,1.38,1.38,0,0,1-.91-1.32c0-1,.87-1.68,2.14-1.68a2.52,2.52,0,0,1,2.17,1.09l-.83.62a1.57,1.57,0,0,0-1.4-.8c-.54,0-1,.24-1,.66s.5.55,1,.64l.56.12c.73.15,1.75.45,1.75,1.61s-1.15,1.74-2.29,1.74a3.64,3.64,0,0,1-1-.12,2.44,2.44,0,0,1-1.4-1Z"/><path class="cls-2" d="M106.28,104.66a2.86,2.86,0,0,1-.47.81,2.39,2.39,0,0,1-1.87.83,2.85,2.85,0,0,1,0-5.68,2.17,2.17,0,0,1,2.21,1.67l-1,.27a1.4,1.4,0,0,0-.2-.54,1.14,1.14,0,0,0-1-.47c-.88,0-1.49.73-1.49,1.88s.65,1.91,1.5,1.91a1.25,1.25,0,0,0,1-.53,1.76,1.76,0,0,0,.28-.56Z"/><path class="cls-2" d="M111.83,100.77v3.4a1.8,1.8,0,0,1-.58,1.61,2.48,2.48,0,0,1-1.63.53,2.86,2.86,0,0,1-1-.14,1.7,1.7,0,0,1-1.11-1.09,4.11,4.11,0,0,1-.08-1.08v-3.22h1v3.32a1.93,1.93,0,0,0,.07.66,1.08,1.08,0,0,0,1.09.58,1.3,1.3,0,0,0,.87-.27c.3-.27.3-.57.3-1v-3.27Z"/><path class="cls-2" d="M114.41,105.25h2.14v.92h-3.16v-5.41h1Z"/><path class="cls-2" d="M121.09,101.68H119.6v4.49h-1v-4.49h-1.46v-.92h4Z"/><path class="cls-2" d="M126.68,100.77v3.4a1.8,1.8,0,0,1-.58,1.61,2.47,2.47,0,0,1-1.63.53,2.86,2.86,0,0,1-1-.14,1.71,1.71,0,0,1-1.11-1.09,4.05,4.05,0,0,1-.07-1.08v-3.22h1v3.32a1.93,1.93,0,0,0,.07.66,1.09,1.09,0,0,0,1.1.58,1.31,1.31,0,0,0,.87-.27c.3-.27.3-.57.3-1v-3.27Z"/><path class="cls-2" d="M128.28,100.77H130a2.4,2.4,0,0,1,1.68.39,1.65,1.65,0,0,1,.59,1.33,1.48,1.48,0,0,1-1.06,1.48l1.2,2.2h-1.16l-1.07-2h-.9v2h-1Zm1,.87v1.69h.35l.67,0a.84.84,0,0,0,.95-.83.77.77,0,0,0-.43-.73,2.52,2.52,0,0,0-1.07-.12Z"/><path class="cls-2" d="M134.71,101.67v1.27h2.6v.87h-2.6v1.45h3v.91h-4v-5.4h3.84v.9Z"/><path class="cls-2" d="M97.38,105a4.09,4.09,0,0,0,.47-1.48h-.92a3.47,3.47,0,0,1-.19.74l-.76-.89.21-.12a1.39,1.39,0,0,0,.73-1.35,1.3,1.3,0,0,0-.47-.86,1.41,1.41,0,0,0-1-.28,1.33,1.33,0,0,0-1.19,1.52,1.47,1.47,0,0,0,.35.8l.05.06a1.76,1.76,0,0,0-1,1.51,1.6,1.6,0,0,0,.35,1,1.7,1.7,0,0,0,1.36.61,1.64,1.64,0,0,0,.3,0,2.15,2.15,0,0,0,1.23-.56l.36.41h1.18Zm-1.86-3.43h.08a.48.48,0,0,1,.32.11.46.46,0,0,1,.16.29.57.57,0,0,1-.32.54l-.37.23-.16-.2a.64.64,0,0,1-.15-.37A.48.48,0,0,1,95.53,101.59Zm0,3.9h-.21a.88.88,0,0,1-.71-.29.81.81,0,0,1-.16-.49c0-.34.21-.59.75-.89h0l1.07,1.3A1.42,1.42,0,0,1,95.5,105.49Z"/><path class="cls-2" d="M70.83,123.41V125h2.74v.55H70.22v-4.73h3.26v.56H70.83v1.46h2.31v.56Z"/><path class="cls-2" d="M77.88,124.12h-1.8l-.53,1.45h-.67l1.8-4.73h.66l1.72,4.73H78.4Zm-.19-.53-.69-2-.72,2Z"/><path class="cls-2" d="M81.89,121.39v4.18h-.63v-4.18H79.83v-.56h3.48v.56Z"/><path class="cls-2" d="M86.54,121.39v4.18H85.9v-4.18H84.48v-.56h3.47v.56Z"/><path class="cls-2" d="M90.06,125h2.29v.56H89.44v-4.74h.63Z"/><path class="cls-2" d="M94.51,123.41V125h2.73v.55H93.9v-4.73h3.26v.56H94.51v1.46h2.3v.56Z"/><path class="cls-2" d="M67.77,123a4.54,4.54,0,0,0-.74-.21l-.52-.14c-.41-.09-.93-.21-.93-.73s.5-.74,1.07-.74a1.4,1.4,0,0,1,.84.23.89.89,0,0,1,.35.55l.58-.17a1.41,1.41,0,0,0-.52-.75,2.13,2.13,0,0,0-1.28-.35,1.9,1.9,0,0,0-1.27.4,1.18,1.18,0,0,0-.43.92c0,1,1,1.21,1.69,1.35l.4.08c.46.09.9.24.9.79s-.51.95-1.18.95a1.45,1.45,0,0,1-1-.32,1.08,1.08,0,0,1-.34-.62l-.64.19a1.85,1.85,0,0,0,1.93,1.23,2.31,2.31,0,0,0,1.29-.34,1.33,1.33,0,0,0,.6-1.14A1.23,1.23,0,0,0,67.77,123Z"/><path class="cls-2" d="M74.87,62.06l1.34,6H80L74,40.34H69L63.07,68h3.77l1.35-6ZM71.52,46.33l2.55,12H69Z"/><path class="cls-2" d="M81.31,60c0,4.79,3.29,8.45,7.65,8.49h.24A7,7,0,0,0,94,66.26L95.07,68h3.85l-2.82-4.88A17.37,17.37,0,0,0,97.58,57s.06-.89,0-2.38H94.25l0,1.1c0,.45,0,.9-.05,1.33a16.16,16.16,0,0,1-.33,2.34l-4.11-7.22.81-.73c2.38-2,3.64-4.06,3.73-6.17A5.36,5.36,0,0,0,93,41.37l0,0a5.18,5.18,0,0,0-3.74-1.69h-.07A5.47,5.47,0,0,0,85,41.17,5.74,5.74,0,0,0,83.37,45a9.07,9.07,0,0,0,1.28,4.84l.89,1.57C83.63,53.22,81.31,56,81.31,60Zm5.4-14.75a3.19,3.19,0,0,1,.05-.46v0a2.08,2.08,0,0,1,4.12.41v0c-.05,1.07-.93,2.37-2.49,3.66l-.08.06-.27.25-.44-.77,0-.07A5.7,5.7,0,0,1,86.71,45.24Zm.62,9.21L92.26,63A4,4,0,0,1,89.2,64.9h-.14c-2.48,0-4.28-2.14-4.28-5A7.42,7.42,0,0,1,87.34,54.45Z"/><path class="cls-2" d="M55.38,45.06l.13-.37Z"/><path class="cls-2" d="M55.9,43.62l0,.13.08-.21Z"/><path class="cls-2" d="M55.5,44.69c.11-.32.23-.63.35-.94C55.73,44.06,55.62,44.37,55.5,44.69Z"/><path class="cls-2" d="M55.15,45.77c.07-.24.15-.47.23-.71C55.3,45.3,55.22,45.53,55.15,45.77Z"/><path class="cls-2" d="M54,55.32a26.76,26.76,0,0,1,5.45-14.16,27.08,27.08,0,0,1,45.16,3.19l1.45-.69.73-.35V39.54l-2.17,1A26.46,26.46,0,0,0,102,36.65l-.34-.4-.18-.21a27,27,0,0,0-45.5,7.51l-.08.21c-.12.31-.24.63-.35.94l-.13.38c-.08.23-.16.47-.23.71A27,27,0,0,0,54,53.66c0,.56,0,1.12.06,1.67Z"/><path class="cls-2" d="M51.5,53.58A29.44,29.44,0,0,0,96.64,78q1.14-.72,2.21-1.54a29.61,29.61,0,0,0,5.53-5.5,33.33,33.33,0,0,0,2.34-3.52v3.78a33.54,33.54,0,0,1-2.25,3.41l-.08.12-.2.25-.57.7a29.92,29.92,0,0,1-4.75,4.55c-.71.54-1.43,1.05-2.19,1.53A29.7,29.7,0,0,1,51.34,56.5c0-1,.05-2,.15-3Z"/></svg>
